Coordinates
version=1
nRows=22
nColumns=26
inDegrees=yes

Units are S.I. units (second, meters, Newtons, ...)
Angles are in degrees.

endheader
time	pelvis_tilt	pelvis_list	pelvis_rotation	pelvis_tx	pelvis_ty	pelvis_tz	hip_flexion_r	hip_adduction_r	hip_rotation_r	knee_angle_r	knee_angle_r_beta	ankle_angle_r	subtalar_angle_r	mtp_angle_r	hip_flexion_l	hip_adduction_l	hip_rotation_l	knee_angle_l	knee_angle_l_beta	ankle_angle_l	subtalar_angle_l	mtp_angle_l	lumbar_extension	lumbar_bending	lumbar_rotation
     62.41951906	     -7.83761567	      2.30000394	      4.08260905	      0.03109831	      1.01553337	      0.23662323	     27.02103725	     -3.29600474	     -0.77552068	     93.54429964	     93.54429964	     -7.67258171	    -27.31407376	      0.00000000	     20.49442422	      3.91341047	     -3.27055632	     42.38416078	     42.38416078	     23.80872936	     -7.15377869	      0.00000000	    -14.77828738	     -5.77682648	      1.91008440
     62.42951906	     -7.85766290	      1.99377905	      4.86429663	      0.03121905	      1.01996602	      0.23519443	     28.51157277	     -3.83977312	     -1.94835342	     92.19840094	     92.19840094	     -8.19336440	    -28.54919454	      0.00000000	     17.88692408	      3.80878049	     -2.27073948	     40.58367763	     40.58367763	     23.90455627	     -6.00065858	      0.00000000	    -14.67020530	     -4.91754012	     -0.00559653
     62.43951906	     -8.46906615	      1.49954413	      4.93990381	      0.03146931	      1.02444075	      0.23455147	     30.64581963	     -3.79899891	     -2.39485111	     90.44745180	     90.44745180	     -7.73630754	    -28.68417721	      0.00000000	     15.96684833	      3.28172523	     -1.99342339	     38.72394246	     38.72394246	     23.06109607	     -5.41155955	      0.00000000	    -13.74919140	     -4.00291192	     -0.66121353
     62.44951906	     -8.20580408	      0.72986127	      5.41534772	      0.03278108	      1.03109487	      0.23355506	     31.34363955	     -3.55947889	     -3.47541287	     87.80496130	     87.80496130	     -7.57637343	    -29.13376046	      0.00000000	     12.99560832	      2.58603698	     -0.93859157	     36.52361772	     36.52361772	     21.33938758	     -5.63776676	      0.00000000	    -13.78562103	     -2.62357466	     -1.89749542
     62.45951906	     -8.36273530	      0.19139528	      5.39104935	      0.03425530	      1.03771715	      0.23318733	     32.42327528	     -3.23970690	     -3.90147882	     84.83740966	     84.83740966	     -6.99993612	    -28.90884842	      0.00000000	     10.51196638	      1.95265315	     -0.59657683	     34.32268894	     34.32268894	     19.08706036	     -5.52871825	      0.00000000	    -13.31115829	     -1.63537323	     -2.46161437
     62.46951906	     -8.45237844	     -0.27578302	      5.27248714	      0.03614012	      1.04492952	      0.23309107	     33.20941236	     -2.84620397	     -4.17323559	     81.42784503	     81.42784503	     -6.36037406	    -28.33364465	      0.00000000	      8.05422808	      1.32960423	     -0.45377025	     32.17791609	     32.17791609	     16.30926844	     -5.41775851	      0.00000000	    -12.91010970	     -0.76745530	     -2.95097599
     62.47951906	     -8.54095723	     -0.68713567	      4.96902065	      0.03829508	      1.05238376	      0.23337593	     33.78546105	     -2.31623049	     -4.22289464	     77.59602601	     77.59602601	     -5.80215788	    -27.53234683	      0.00000000	      5.71876438	      0.70030504	     -0.69300043	     30.15532429	     30.15532429	     13.12181911	     -5.31516961	      0.00000000	    -12.51554314	     -0.00456505	     -3.30909028
     62.48951906	     -8.43741608	     -0.88084083	      4.57007989	      0.04099981	      1.06025653	      0.23382447	     33.87133883	     -1.89020845	     -4.07215172	     73.31815448	     73.31815448	     -5.35192697	    -26.57349332	      0.00000000	      3.17249813	      0.28939375	     -1.12461752	     28.00967815	     28.00967815	      9.50612256	     -5.21030793	      0.00000000	    -12.31260177	      0.50440012	     -3.58114609
     62.49951906	     -8.53803049	     -1.15380290	      3.98468317	      0.04379382	      1.06767611	      0.23474212	     33.98534996	     -1.20720616	     -3.71349468	     68.64792310	     68.64792310	     -5.14398956	    -25.50295384	      0.00000000	      1.01452641	     -0.22216165	     -1.95498429	     26.00896873	     26.00896873	      5.54799819	     -5.10229676	      0.00000000	    -11.84911320	      1.05732398	     -3.56786542
     62.50951906	     -8.57188123	     -1.33200013	      3.43272676	      0.04672967	      1.07481936	      0.23552725	     33.79623443	     -0.59114290	     -3.27629048	     63.61297522	     63.61297522	     -5.16565674	    -24.42687120	      0.00000000	     -1.08337986	     -0.56567899	     -2.61416416	     24.13066177	     24.13066177	      1.33328221	     -5.16299808	      0.00000000	    -11.48808001	      1.52410654	     -3.63314092
     62.51951906	     -8.62852947	     -1.46675488	      2.89723758	      0.04960911	      1.08139510	      0.23631023	     33.42481797	      0.00278284	     -2.76348800	     58.22885782	     58.22885782	     -5.41389448	    -23.36238146	      0.00000000	     -2.95979228	     -0.80648589	     -3.09434628	     22.51772130	     22.51772130	     -2.93049702	     -5.41546569	      0.00000000	    -11.12347710	      1.93902737	     -3.75731897
     62.52951906	     -8.77030606	     -1.49915193	      2.38321524	      0.05238257	      1.08714772	      0.23704376	     32.93285134	      0.50348546	     -2.12788162	     52.54063765	     52.54063765	     -5.76624011	    -22.35631116	      0.00000000	     -4.57039501	     -0.88798877	     -3.50363820	     21.14481024	     21.14481024	     -7.15337601	     -5.97218571	      0.00000000	    -10.68635599	      2.23385337	     -3.87242446
     62.53951906	     -8.93149164	     -1.33018079	      1.93879651	      0.05507418	      1.09199335	      0.23759462	     32.28563731	      0.77266774	     -1.36885109	     46.67440747	     46.67440747	     -5.95059522	    -21.32388755	      0.00000000	     -5.97080010	     -0.69837963	     -3.62138956	     20.07856252	     20.07856252	    -11.18041581	     -6.79405642	      0.00000000	    -10.26074400	      2.30144002	     -4.03678979
     62.54951906	     -9.20144102	     -1.00576722	      1.46522478	      0.05747874	      1.09568929	      0.23824917	     31.65597531	      0.93658017	     -0.33465669	     40.76569838	     40.76569838	     -5.82966512	    -20.15359934	      0.00000000	     -6.95979668	     -0.32960057	     -3.83765030	     19.56267556	     19.56267556	    -14.67122258	     -7.74420609	      0.00000000	     -9.74600264	      2.15269148	     -4.16541521
     62.55951906	     -9.42253777	     -0.40051041	      0.99720766	      0.05954230	      1.09847059	      0.23885569	     30.88983999	      0.82514322	      1.03903065	     34.89078085	     34.89078085	     -5.48416988	    -18.89627397	      0.00000000	     -7.81820554	      0.41463228	     -3.76834614	     19.32980680	     19.32980680	    -18.03878767	     -9.13368515	      0.00000000	     -9.33335379	      1.69396401	     -4.27255199
     62.56951906	     -9.64405941	      0.25357257	      0.50670329	      0.06120081	      1.10008818	      0.23965528	     30.11981576	      0.64254229	      2.59806877	     29.23761015	     29.23761015	     -4.87374029	    -17.29383509	      0.00000000	     -8.35509444	      1.18028333	     -3.83222457	     19.74139986	     19.74139986	    -21.06256873	    -10.62557910	      0.00000000	     -8.93459426	      1.13230024	     -4.23943709
     62.57951906	     -9.67677406	      0.95075610	      0.15457037	      0.06266525	      1.10074952	      0.24042088	     29.21252914	      0.26651228	      4.00584259	     24.05973392	     24.05973392	     -4.12667790	    -15.57969593	      0.00000000	     -8.87727979	      2.03632414	     -3.32493690	     20.76864337	     20.76864337	    -22.87797313	    -12.40045331	      0.00000000	     -8.77383938	      0.49894898	     -4.35705802
     62.58951906	     -9.63978523	      1.51993886	     -0.23818928	      0.06383899	      1.10028103	      0.24137000	     28.37446411	     -0.04679675	      5.10199989	     19.53953570	     19.53953570	     -3.48326001	    -13.85813002	      0.00000000	     -9.10628588	      2.71879268	     -2.95565499	     22.74281974	     22.74281974	    -22.48060482	    -13.85969706	      0.00000000	     -8.72556389	     -0.01322894	     -4.31240779
     62.59951906	     -9.40557494	      2.04555367	     -0.68118483	      0.06480815	      1.09920775	      0.24230288	     27.53316545	     -0.36403828	      5.93235326	     15.90197571	     15.90197571	     -3.06127463	    -12.22890291	      0.00000000	     -9.29963772	      3.43840969	     -2.33866836	     25.19316031	     25.19316031	    -21.25508936	    -15.51060944	      0.00000000	     -8.92164681	     -0.45690333	     -4.12476018
     62.60951906	     -8.94344442	      2.55014246	     -1.25917621	      0.06545705	      1.09752238	      0.24326477	     26.90819748	     -0.63143007	      6.34134824	     13.65417966	     13.65417966	     -3.01055874	    -10.83698938	      0.00000000	     -9.45118017	      4.20426025	     -1.78471167	     28.11542935	     28.11542935	    -20.03064760	    -17.09018916	      0.00000000	     -9.43532348	     -0.88398765	     -3.74167849
     62.61951906	     -8.43362730	      2.58021931	     -1.74429997	      0.06604743	      1.09500209	      0.24407419	     26.33246962	     -0.42696418	      6.47424270	     12.28997088	     12.28997088	     -2.89654711	     -9.52096728	      0.00000000	     -9.33684099	      4.45988080	     -1.37080580	     31.58935296	     31.58935296	    -19.08002350	    -18.73541240	      0.00000000	    -10.00417334	     -0.72943910	     -3.58672037
     62.62951906	     -7.82044773	      2.58010946	     -2.28165403	      0.06621971	      1.09166448	      0.24479440	     25.83779076	     -0.10752453	      6.66656238	     11.92054160	     11.92054160	     -2.72545900	     -8.68915191	      0.00000000	     -9.05509140	      4.69938343	     -1.14733786	     35.43519414	     35.43519414	    -18.54339416	    -20.08495513	      0.00000000	    -10.75433800	     -0.55298784	     -3.34711084
